<?xml version="1.0" encoding="UTF-8"?><svg id="Layer_2" xmlns="http://www.w3.org/2000/svg" viewBox="0 0 51.39 51.45"><defs><style>.cls-1{fill:#fff;}</style></defs><g id="DESIGNED_BY_FREEPIK"><path class="cls-1" d="m12.04,21.83c5.7,0,11.39-.06,17.67-.1-.05,6.31-.31,12.21-.03,18.08.12,2.45.91,5.17,2.25,7.21,2.6,3.96,7.49,5.28,11.83,3.89,4.51-1.45,7.57-5.37,7.62-10.26.06-6.19-.11-12.38-.18-18.7,0,0,1.32-21.2-21.39-21.79C23.46.1,17.67-.02,11.88,0,4.97.02.05,4.57,0,10.84c-.05,6.37,4.98,10.99,12.04,11Z"/></g></svg>