<?xml version="1.0" encoding="UTF-8"?><svg id="Layer_2" xmlns="http://www.w3.org/2000/svg" viewBox="0 0 63.01 63.66"><defs><style>.cls-1{fill:#fff;}</style></defs><g id="DESIGNED_BY_FREEPIK"><path class="cls-1" d="m46.49,31.83c4.47,4.41,8.54,8.39,12.57,12.42,4.99,5,5.28,11.83.74,16.29-4.47,4.4-11.16,4.13-16.06-.74-4.11-4.08-8.12-8.25-12.56-12.79-4.38,4.48-8.41,8.75-12.6,12.86-3.5,3.44-8.45,4.12-12.63,1.99C1.7,59.71-.78,55.3.24,50.5c.49-2.29,1.81-4.66,3.4-6.4,3.76-4.13,7.9-7.91,12.39-12.33-4.17-4.04-8.32-7.76-12.08-11.84-1.67-1.82-3.13-4.22-3.69-6.6C-.85,8.59,1.63,4.09,5.82,1.9,10.01-.28,14.93.35,18.47,3.73c3.6,3.43,7.06,7.01,10.58,10.52.65.64,1.34,1.25,2.4,2.24,4.41-4.52,8.67-9.02,13.09-13.35,3.49-3.43,8.43-4.04,12.64-1.87,4.06,2.09,6.58,6.48,5.62,11.12-.49,2.39-1.85,4.87-3.51,6.68-3.95,4.35-8.31,8.34-12.81,12.76Z"/></g></svg>