<?xml version="1.0" encoding="UTF-8"?><svg id="Layer_2" xmlns="http://www.w3.org/2000/svg" viewBox="0 0 80.17 21.96"><defs><style>.cls-1{fill:#fff;}</style></defs><g id="DESIGNED_BY_FREEPIK"><path class="cls-1" d="m50.36,21.79c6.35.06,12.14.18,17.93.16,6.91-.02,11.83-4.57,11.88-10.84.05-6.37-4.98-10.99-12.04-11-5.7,0-11.39.06-17.67.1l-21.48-.21c-1.45.05-2.36.11-3.27.11-4.97.01-9.95-.07-14.92.05C5.87.27,1.95,3.31.53,7.81c-1.42,4.5.02,9.45,4.16,12.01,2.07,1.28,4.8,1.96,7.27,2.06,5.54.23,11.1-.08,16.91-.17l21.48.08Z"/></g></svg>