<?xml version="1.0" encoding="UTF-8"?><svg id="Layer_2" xmlns="http://www.w3.org/2000/svg" viewBox="0 0 80.17 80.2"><defs><style>.cls-1{fill:#fff;}</style></defs><g id="DESIGNED_BY_FREEPIK"><path class="cls-1" d="m50.45,29.71c6.28-.04,11.97-.1,17.67-.1,7.07,0,12.1,4.63,12.04,11-.05,6.27-4.97,10.81-11.88,10.84-5.79.02-11.58-.1-17.93-.16.07,6.26.24,12.13.18,18-.04,4.91-3.06,8.88-7.53,10.34-4.52,1.47-9.39.11-12.06-4.01-1.27-1.96-2.01-4.58-2.12-6.93-.26-5.58,0-11.18.04-17.48-5.81.09-11.37.4-16.91.17-2.47-.1-5.2-.78-7.27-2.06-4.14-2.56-5.58-7.5-4.16-12.01,1.42-4.51,5.34-7.54,10.24-7.65,4.97-.12,9.95-.03,14.92-.05.91,0,1.83-.06,3.27-.11-.07-6.32-.24-12.51-.18-18.7.05-4.89,3.1-8.81,7.62-10.26,4.35-1.39,9.23-.07,11.83,3.89,1.34,2.04,2.13,4.75,2.25,7.21.28,5.87.02,11.77-.03,18.08Z"/></g></svg>